<svg width="42" height="42" viewBox="0 0 42 42" fill="none" xmlns="http://www.w3.org/2000/svg">
<rect x="1" y="1" width="40" height="40" fill="black" fill-opacity="0.2"/>
<path d="M23.2929 16.2929C23.6834 15.9024 24.3166 15.9024 24.7071 16.2929L28.7071 20.2929C28.7356 20.3214 28.7623 20.3515 28.7872 20.3833C28.7927 20.3902 28.7982 20.3974 28.8037 20.4047C28.8215 20.4289 28.8383 20.4537 28.8539 20.4793C28.8614 20.4914 28.8685 20.5036 28.8753 20.5159C28.8862 20.5357 28.8966 20.5561 28.9063 20.5769C28.9143 20.5939 28.9218 20.6112 28.9288 20.6287C28.9367 20.6484 28.9439 20.6682 28.9505 20.6883C28.9553 20.7031 28.9599 20.7185 28.9642 20.734C28.9702 20.7556 28.9754 20.7773 28.9798 20.7992C28.9833 20.8166 28.9864 20.8341 28.989 20.8515C28.9962 20.8996 29 20.9494 29 21L28.9963 20.9138C28.9978 20.9317 28.9989 20.9497 28.9995 20.9677L29 21C29 21.0112 28.9998 21.0224 28.9994 21.0335C28.9989 21.0506 28.9979 21.0679 28.9964 21.0852C28.9946 21.1071 28.9921 21.1281 28.989 21.149C28.9864 21.1659 28.9833 21.1834 28.9798 21.2007C28.9754 21.2227 28.9702 21.2444 28.9643 21.2658C28.9599 21.2815 28.9553 21.2969 28.9503 21.3121C28.9439 21.3318 28.9367 21.3516 28.9289 21.3711C28.9218 21.3888 28.9143 21.4061 28.9063 21.4232C28.8966 21.4439 28.8862 21.4643 28.8751 21.4843C28.8685 21.4964 28.8614 21.5086 28.854 21.5207C28.8383 21.5463 28.8215 21.5711 28.8037 21.5952C28.7747 21.6343 28.7425 21.6717 28.7071 21.7071L28.7872 21.6167C28.7849 21.6197 28.7826 21.6226 28.7803 21.6254L28.7071 21.7071L24.7071 25.7071C24.3166 26.0976 23.6834 26.0976 23.2929 25.7071C22.9024 25.3166 22.9024 24.6834 23.2929 24.2929L25.585 22H14C13.4872 22 13.0645 21.614 13.0067 21.1166L13 21C13 20.4477 13.4477 20 14 20H25.585L23.2929 17.7071C22.9324 17.3466 22.9047 16.7794 23.2097 16.3871L23.2929 16.2929Z" fill="white"/>
<rect x="0.5" y="0.5" width="41" height="41" stroke="white" stroke-opacity="0.2"/>
</svg>
