<svg width="42" height="42" viewBox="0 0 42 42" fill="none" xmlns="http://www.w3.org/2000/svg">
<rect x="1" y="1" width="40" height="40" fill="black" fill-opacity="0.2"/>
<path d="M17.2929 16.2929C17.6834 15.9024 18.3166 15.9024 18.7071 16.2929C19.0976 16.6834 19.0976 17.3166 18.7071 17.7071L16.414 20H28C28.5128 20 28.9355 20.386 28.9933 20.8834L29 21C29 21.5523 28.5523 22 28 22H16.414L18.7071 24.2929C19.0676 24.6534 19.0953 25.2206 18.7903 25.6129L18.7071 25.7071C18.3166 26.0976 17.6834 26.0976 17.2929 25.7071L13.2929 21.7071L13.2197 21.6254C13.2174 21.6226 13.2151 21.6197 13.2128 21.6167C13.2073 21.6098 13.2018 21.6026 13.1963 21.5953C13.1785 21.5711 13.1617 21.5463 13.1461 21.5207C13.1386 21.5086 13.1315 21.4964 13.1247 21.4841C13.1138 21.4643 13.1034 21.4439 13.0937 21.4231C13.0857 21.4061 13.0782 21.3888 13.0712 21.3713C13.0633 21.3516 13.0561 21.3318 13.0495 21.3117C13.0447 21.2969 13.0401 21.2815 13.0358 21.266C13.0298 21.2444 13.0246 21.2227 13.0202 21.2008C13.0167 21.1834 13.0136 21.1659 13.011 21.1485C13.0038 21.1004 13 21.0506 13 21L13.004 21.0893C13.0019 21.066 13.0006 21.0427 13.0002 21.0194L13 21C13 20.9936 13.0001 20.9872 13.0002 20.9808C13.0006 20.958 13.0019 20.9343 13.004 20.9107C13.0058 20.8902 13.0081 20.8705 13.011 20.851C13.0136 20.8341 13.0167 20.8166 13.0202 20.7993C13.0246 20.7773 13.0298 20.7556 13.0357 20.7342C13.0401 20.7185 13.0447 20.7031 13.0497 20.6879C13.0561 20.6682 13.0633 20.6484 13.0711 20.6289C13.0782 20.6112 13.0857 20.5939 13.0937 20.5768C13.1034 20.5561 13.1138 20.5357 13.1249 20.5157C13.1315 20.5036 13.1386 20.4914 13.146 20.4793C13.1617 20.4537 13.1785 20.4289 13.1963 20.4048C13.2253 20.3657 13.2575 20.3283 13.2929 20.2929L13.2128 20.3833C13.2377 20.3515 13.2644 20.3214 13.2929 20.2929L17.2929 16.2929Z" fill="white"/>
<rect x="0.5" y="0.5" width="41" height="41" stroke="white" stroke-opacity="0.2"/>
</svg>
