<svg class="icon icon__search" width="24" height="24" viewBox="0 0 24 24" fill="none" xmlns="http://www.w3.org/2000/svg">
      <path fill-rule="evenodd" clip-rule="evenodd" d="M11 17.75C14.7279 17.75 17.75 14.7279 17.75 11C17.75 7.27208 14.7279 4.25 11 4.25C7.27208 4.25 4.25 7.27208 4.25 11C4.25 14.7279 7.27208 17.75 11 17.75ZM11 19C15.4183 19 19 15.4183 19 11C19 6.58172 15.4183 3 11 3C6.58172 3 3 6.58172 3 11C3 15.4183 6.58172 19 11 19Z" fill="white"></path>
      <path fill-rule="evenodd" clip-rule="evenodd" d="M21.0581 21.9419L15.5581 16.4419L16.4419 15.5581L21.9419 21.0581L21.0581 21.9419Z" fill="White"></path>
    </svg>